#!OML:ASF I:\Actors\actors\Patient Classification 1\Patient 1\Session 1\Subject1.ASF
:FULLY-SPECIFIED
:DEGREES
814
root -0.183939 17.6172 8.17452 9.11927 20.2129 -8.07193
lowerback 6.01575 8.39606 3.88647
upperback -10.7469 11.8255 -2.4506
thorax -13.8488 5.10377 -6.82348
lowerneck -11.9341 -9.55527 -5.88456
upperneck 8.77179 -12.9175 8.51227
head 5.5333 -5.96484 2.44816
rclavicle -9.75039e-014 -7.15625e-015
rhumerus 24.8246 15.7248 -90.0088
rradius 68.5732
rwrist 48.8597
rhand -35.209 -51.668
rfingers 7.12502
rthumb -8.34644 -81.4831
lclavicle -9.75039e-014 -7.15625e-015
lhumerus -38.7632 -17.755 94.3198
lradius 74.0099
lwrist 12.2746
lhand -26.7667 -23.894
lfingers 7.12502
lthumb -0.194791 6.08567
rfemur 0.930549 22.5699 25.6849
rtibia -0.77488
rfoot -25.9141 -40.6951
rtoes 20.5779
lfemur -5.82084 -46.158 -6.11895
ltibia -3.29558
lfoot -3.92371 39.6248
ltoes -10.2597
815
root -0.129111 17.6217 8.16501 8.97889 20.8054 -8.30955
lowerback 6.67158 8.61276 4.29199
upperback -10.9983 12.1471 -3.11953
thorax -14.2867 5.12763 -7.96399
lowerneck -11.8788 -9.86902 -6.25516
upperneck 8.48294 -13.4528 9.97322
head 5.60875 -6.14511 2.89742
rclavicle 1.56543e-013 9.54166e-015
rhumerus 27.2428 12.9336 -90.7242
rradius 65.9945
rwrist 50.1821
rhand -35.1071 -51.9115
rfingers 7.12502
rthumb -8.24818 -81.7305
lclavicle 1.56543e-013 9.54166e-015
lhumerus -38.6307 -18.9922 93.6524
lradius 74.1391
lwrist 12.6608
lhand -26.7942 -23.3781
lfingers 7.12502
lthumb -0.221325 6.6015
rfemur 0.894666 22.0829 25.7716
rtibia -0.560927
rfoot -26.1612 -40.7154
rtoes 20.497
lfemur -5.95648 -45.9579 -5.95838
ltibia -3.4205
lfoot -3.3288 38.8602
ltoes -11.0874
816
root -0.0723706 17.6247 8.1539 8.92721 21.2871 -8.46206
lowerback 6.97829 8.71333 4.24635
upperback -11.0943 12.2586 -3.4644
thorax -14.5092 5.14008 -8.41039
lowerneck -11.9908 -9.9376 -6.38651
upperneck 8.16104 -13.6165 10.9621
head 5.62691 -6.16543 3.20125
rclavicle 1.66979e-014 3.33958e-014
rhumerus 29.8607 10.8842 -91.3119
rradius 63.1135
rwrist 50.5901
rhand -34.9775 -52.1277
rfingers 7.12502
rthumb -8.12305 -81.9516
lclavicle 1.66979e-014 3.33958e-014
lhumerus -38.3883 -19.6158 93.0972
lradius 74.15
lwrist 12.7421
lhand -26.7565 -22.9443
lfingers 7.12502
lthumb -0.184945 7.03537
rfemur 0.777801 21.5878 25.7061
rtibia -0.346567
rfoot -26.4076 -40.648
rtoes 20.6114
lfemur -6.13012 -45.9652 -5.86737
ltibia -3.54349
lfoot -2.73662 38.3931
ltoes -11.7672
817
root -0.0124974 17.6273 8.14275 8.94957 21.6327 -8.52711
lowerback 7.08796 8.74254 3.93188
upperback -11.1196 12.2408 -3.61908
thorax -14.6408 5.14324 -8.44494
lowerneck -12.1318 -9.87158 -6.43763
upperneck 7.81954 -13.5639 11.6579
head 5.59821 -6.09867 3.42766
rclavicle 8.94531e-015 -3.33958e-014
rhumerus 32.4311 9.44012 -91.8673
rradius 60.1672
rwrist 50.1401
rhand -34.9489 -52.1781
rfingers 7.12502
rthumb -8.09541 -82.0031
lclavicle 8.94531e-015 -3.33958e-014
lhumerus -38.1087 -19.8443 92.6183
lradius 74.0564
lwrist 12.8241
lhand -26.6908 -22.5843
lfingers 7.12502
lthumb -0.12149 7.3954
rfemur 0.62055 21.1198 25.4995
rtibia -0.153023
rfoot -26.6342 -40.5031
rtoes 20.6237
lfemur -6.25289 -46.2846 -5.89099
ltibia -3.68724
lfoot -2.33811 38.35
ltoes -11.8951
818
root 0.0478282 17.6304 8.13295 8.87899 21.8804 -8.6559
lowerback 7.21221 8.79505 3.68107
upperback -11.1204 12.2688 -3.71659
thorax -14.7455 5.16721 -8.45505
lowerneck -12.2816 -9.82594 -6.53071
upperneck 7.55056 -13.5326 12.3177
head 5.59583 -6.04379 3.64585
rclavicle 1.40143e-013 -4.92986e-014
rhumerus 34.7322 8.11056 -92.4737
rradius 57.4137
rwrist 49.7455
rhand -34.9072 -52.6616
rfingers 7.12502
rthumb -8.05516 -82.4881
lclavicle 1.40143e-013 -4.92986e-014
lhumerus -37.8537 -20.0385 92.2381
lradius 73.8938
lwrist 13.0766
lhand -26.5873 -22.3052
lfingers 7.12502
lthumb -0.0215082 7.6745
rfemur 0.546055 20.7017 25.3957
rtibia 0.0365097
rfoot -26.7312 -40.4124
rtoes 20.0715
lfemur -6.2089 -46.3812 -5.98099
ltibia -3.81303
lfoot -2.15107 38.1726
ltoes -11.6963
819
root 0.106981 17.6332 8.12396 8.75342 22.0895 -8.81135
lowerback 7.17538 8.80974 3.24922
upperback -11.0155 12.2275 -3.62546
thorax -14.7114 5.20523 -8.10572
lowerneck -12.448 -9.69183 -6.50704
upperneck 7.17306 -13.3622 12.8155
head 5.5286 -5.9321 3.81422
rclavicle 1.48194e-013 -3.02153e-014
rhumerus 36.7992 7.07195 -93.1394
rradius 55.065
rwrist 49.7693
rhand -34.8062 -53.4201
rfingers 7.12502
rthumb -7.95775 -83.2503
lclavicle 1.48194e-013 -3.02153e-014
lhumerus -37.5534 -19.9816 92.0013
lradius 73.6994
lwrist 13.4899
lhand -26.6382 -22.1293
lfingers 7.12502
lthumb -0.0706809 7.85041
rfemur 0.530322 20.2993 25.3513
rtibia 0.217965
rfoot -26.769 -40.3571
rtoes 19.3633
lfemur -6.0666 -46.4101 -6.1089
ltibia -3.92401
lfoot -2.13854 37.9544
ltoes -11.308
820
root 0.164958 17.6358 8.11467 8.68992 22.2693 -8.92693
lowerback 6.78787 8.7217 2.33572
upperback -10.7674 12 -3.19951
thorax -14.4836 5.24846 -7.02771
lowerneck -12.6392 -9.37877 -6.53641
upperneck 6.65565 -12.8975 13.1556
head 5.38356 -5.69449 3.97761
rclavicle -5.20816e-014 1.59028e-015
rhumerus 38.564 6.70317 -93.6907
rradius 53.4015
rwrist 49.7824
rhand -34.4652 -53.7778
rfingers 7.12502
rthumb -7.62856 -83.6202
lclavicle -5.20816e-014 1.59028e-015
lhumerus -37.1538 -19.229 91.9627
lradius 73.4481
lwrist 13.6109
lhand -26.5866 -21.8999
lfingers 7.12502
lthumb -0.0208037 8.07987
rfemur 0.486786 19.8768 25.2518
rtibia 0.372193
rfoot -26.7756 -40.2367
rtoes 18.7791
lfemur -6.00481 -46.4541 -6.21532
ltibia -4.0139
lfoot -2.1283 37.7563
ltoes -11.021
821
root 0.223227 17.6383 8.10694 8.6463 22.4417 -9.02031
lowerback 6.83368 8.85894 2.06423
upperback -10.7922 12.1344 -3.34057
thorax -14.5524 5.32677 -7.07678
lowerneck -12.6855 -9.41859 -6.58554
upperneck 6.3071 -12.9786 13.8438
head 5.34953 -5.69941 4.19119
rclavicle 2.01766e-014 2.06736e-014
rhumerus 39.6216 5.29726 -94.5678
rradius 52.3986
rwrist 49.8286
rhand -34.0758 -54.0539
rfingers 7.12502
rthumb -7.25278 -83.9096
lclavicle 2.01766e-014 2.06736e-014
lhumerus -37.0627 -19.5684 91.8335
lradius 73.1899
lwrist 13.4518
lhand -26.3142 -21.5312
lfingers 7.12502
lthumb 0.242249 8.44844
rfemur 0.493252 19.5632 25.1507
rtibia 0.464797
rfoot -26.866 -40.151
rtoes 18.3147
lfemur -5.99007 -46.2605 -6.33814
ltibia -4.09029
lfoot -1.93843 37.3046
ltoes -11.1057
822
root 0.282216 17.6393 8.10301 8.59567 22.6297 -9.06298
lowerback 6.8782 8.97579 1.74047
upperback -10.8342 12.2369 -3.45886
thorax -14.6626 5.39405 -7.07403
lowerneck -12.835 -9.49339 -6.55181
upperneck 6.24222 -13.1219 14.2776
head 5.40228 -5.73422 4.29854
rclavicle 2.92213e-014 7.31528e-014
rhumerus 40.3425 3.99762 -95.3919
rradius 51.5576
rwrist 49.9898
rhand -34.0114 -54.4199
rfingers 7.12502
rthumb -7.19056 -84.2778
lclavicle 2.92213e-014 7.31528e-014
lhumerus -37.1124 -19.9008 91.7736
lradius 72.9549
lwrist 13.1717
lhand -26.083 -21.2662
lfingers 7.12502
lthumb 0.465625 8.71302
rfemur 0.608878 19.4033 25.0409
rtibia 0.470252
rfoot -27.0765 -40.2255
rtoes 18.0405
lfemur -5.89447 -46.0626 -6.57559
ltibia -4.197
lfoot -1.6615 36.8152
ltoes -11.281
823
root 0.340775 17.638 8.1012 8.5397 22.8687 -9.06455
lowerback 6.89093 8.96169 1.34693
upperback -10.8895 12.1585 -3.5061
thorax -14.8213 5.38491 -6.92838
lowerneck -13.0816 -9.45218 -6.42793
upperneck 6.44712 -13.1351 14.5484
head 5.52261 -5.69904 4.35054
rclavicle 8.33902e-014 9.54166e-015
rhumerus 40.6671 3.145 -96.1162
rradius 50.7002
rwrist 50.1543
rhand -34.223 -54.5802
rfingers 7.12502
rthumb -7.39483 -84.4309
lclavicle 8.33902e-014 9.54166e-015
lhumerus -37.383 -20.0281 91.6664
lradius 72.8307
lwrist 13.1857
lhand -25.8907 -21.1043
lfingers 7.12502
lthumb 0.651283 8.87447
rfemur 0.81982 19.4093 24.9384
rtibia 0.389513
rfoot -27.4717 -40.5035
rtoes 17.9916
lfemur -5.76874 -45.92 -6.88149
ltibia -4.26926
lfoot -1.55646 36.3154
ltoes -11.2264
